<svg width="21" height="20" viewBox="0 0 21 20" fill="none" xmlns="http://www.w3.org/2000/svg">
<path d="M10.5 0.5C4.975 0.5 0.5 4.86167 0.5 10.2411C0.5 14.5457 3.365 18.1962 7.3375 19.4832C7.8375 19.5749 8.02083 19.2734 8.02083 19.0148C8.02083 18.7835 8.0125 18.1706 8.00833 17.3585C5.22667 17.9459 4.64 16.0517 4.64 16.0517C4.185 14.9274 3.5275 14.6267 3.5275 14.6267C2.62167 14.0228 3.5975 14.0352 3.5975 14.0352C4.60167 14.103 5.12917 15.0389 5.12917 15.0389C6.02083 16.5283 7.47 16.0979 8.04167 15.8493C8.13167 15.219 8.38917 14.7903 8.675 14.5466C6.45417 14.3029 4.12 13.4652 4.12 9.73304C4.12 8.66988 4.5075 7.80085 5.14917 7.11934C5.03667 6.87316 4.69917 5.8827 5.23667 4.54116C5.23667 4.54116 6.07417 4.28012 7.98667 5.53988C8.78667 5.32345 9.63667 5.21606 10.4867 5.2111C11.3367 5.21606 12.1867 5.32345 12.9867 5.53988C14.8867 4.28012 15.7242 4.54116 15.7242 4.54116C16.2617 5.8827 15.9242 6.87316 15.8242 7.11934C16.4617 7.80085 16.8492 8.66988 16.8492 9.73304C16.8492 13.4752 14.5117 14.2987 12.2867 14.5383C12.6367 14.8307 12.9617 15.428 12.9617 16.3408C12.9617 17.6444 12.9492 18.6918 12.9492 19.0082C12.9492 19.2635 13.1242 19.5683 13.6367 19.4708C17.6375 18.192 20.5 14.5391 20.5 10.2411C20.5 4.86167 16.0225 0.5 10.5 0.5Z" fill="white"/>
</svg>
